<svg width="263" height="263" viewBox="0 0 263 263" fill="none" xmlns="http://www.w3.org/2000/svg">
<path d="M132.884 0.00743854C205.506 0.771947 263.757 60.263 262.993 132.884C262.228 205.506 202.737 263.757 130.116 262.993C57.4945 262.228 -0.756999 202.737 0.00743853 130.116C0.771955 57.4945 60.263 -0.756999 132.884 0.00743854ZM166.624 131.97C147.757 131.772 132.302 146.906 132.103 165.772C131.905 184.638 147.038 200.093 165.904 200.292C184.77 200.49 200.226 185.357 200.424 166.491C200.623 147.625 185.49 132.169 166.624 131.97ZM62.6236 189.624L125.32 125.32L189.624 62.6236H62.6236V189.624Z" fill="var(--color-bg-invert)"/>
</svg>
